<?xml version="1.0" standalone="no"?>
<!DOCTYPE svg PUBLIC "-//W3C//DTD SVG 1.1//EN" "http://www.w3.org/Graphics/SVG/1.1/DTD/svg11.dtd" >
<svg xmlns="http://www.w3.org/2000/svg" xmlns:xlink="http://www.w3.org/1999/xlink" version="1.1">
<metadata></metadata>
<defs>
<font id="exo_2bold" horiz-adv-x="1303" >
<font-face units-per-em="2048" ascent="1638" descent="-410" />
<missing-glyph horiz-adv-x="466" />
<glyph horiz-adv-x="0" />
<glyph unicode="&#xd;" horiz-adv-x="715" />
<glyph unicode=" "  horiz-adv-x="466" />
<glyph unicode="&#x09;" horiz-adv-x="466" />
<glyph unicode="&#xa0;" horiz-adv-x="466" />
<glyph unicode="!" horiz-adv-x="644" d="M164 914v580h316v-580l-33 -443h-250zM174 111v104q0 62 25 85.5t87 23.5h73q62 0 87 -23.5t25 -85.5v-104q0 -62 -25 -86.5t-87 -24.5h-73q-62 0 -87 24.5t-25 86.5z" />
<glyph unicode="&#x22;" horiz-adv-x="806" d="M114 1484h232l-19 -475h-196zM460 1484h235l-20 -475h-195z" />
<glyph unicode="#" horiz-adv-x="1526" d="M69 423l36 192h248l51 301h-244l35 190h244l64 378h241l-67 -378h302l64 378h241l-67 -378h241l-36 -190h-238l-51 -301h235l-37 -192h-232l-73 -423h-241l73 423h-299l-73 -423h-241l73 423h-249zM593 615h299l52 301h-299z" />
<glyph unicode="$" horiz-adv-x="1240" d="M97 1101q0 164 53 253t157 122.5t290 35.5l20 193h239l-21 -201q154 -15 277 -51l-20 -223q-187 6 -460 7q-127 0 -170 -22.5t-43 -113.5q0 -73 33.5 -105t123.5 -63l276 -96q170 -60 239.5 -164.5t69.5 -272.5q0 -236 -108.5 -328.5t-379.5 -97.5l-21 -232h-239l22 239 q-148 11 -324 47l22 241q359 -9 484 -9q130 0 174 27t44 111q0 76 -30.5 107t-112.5 57l-292 105q-164 60 -233.5 163t-69.5 271z" />
<glyph unicode="%" horiz-adv-x="1949" d="M74 1071q0 248 81 344.5t286 96.5q207 0 288.5 -97t81.5 -344q0 -245 -82 -343t-288 -98q-205 0 -286 97.5t-81 343.5zM308 1071q0 -162 26.5 -213.5t104.5 -51.5q82 0 108.5 51.5t26.5 213.5t-26.5 213.5t-108.5 51.5q-78 0 -104.5 -53t-26.5 -212zM426 0l890 1484h202 l-888 -1484h-204zM1141 417q0 245 81 343t286 98q207 0 288 -97.5t81 -343.5q0 -248 -81.5 -345.5t-287.5 -97.5q-205 0 -286 98t-81 345zM1377 417q-3 -162 24 -213.5t106.5 -51.5t106.5 52t27 213q0 159 -27 210.5t-106.5 51.5t-106.5 -50t-24 -212z" />
<glyph unicode="&#x26;" horiz-adv-x="1644" d="M109 376q0 178 68 277.5t225 111.5v9q-131 12 -189.5 96t-58.5 250q0 130 30.5 207t107 117t173.5 53t266 13q211 0 351 -26l-39 -226q-220 6 -321 6q-141 0 -188.5 -36t-47.5 -157q0 -114 42 -154.5t158 -40.5h327l21 228h267v-228h230v-222h-230v-312q0 -62 22.5 -86 t80.5 -24h133l35 -215q-111 -43 -273 -43q-213 0 -275 157q-88 -84 -195 -120.5t-270 -36.5q-243 0 -346.5 90t-103.5 312zM456 441q0 -123 38.5 -164t157.5 -41q213 4 350 97v321h-333q-125 0 -169 -44t-44 -169z" />
<glyph unicode="'" horiz-adv-x="457" d="M114 1484h232l-19 -475h-196z" />
<glyph unicode="(" horiz-adv-x="784" d="M84 671q0 428 150.5 677.5t473.5 350.5l36 -138q-352 -161 -352 -888q0 -716 352 -890l-36 -138q-323 103 -473.5 351.5t-150.5 674.5z" />
<glyph unicode=")" horiz-adv-x="784" d="M41 -217q353 174 353 890q0 727 -353 888l37 138q322 -101 472.5 -350.5t150.5 -677.5q0 -426 -150.5 -674.5t-472.5 -351.5z" />
<glyph unicode="*" horiz-adv-x="971" d="M82 1149l53 167l250 -105v-78l-39 -47zM193 849l230 276l-25 361h176l-26 -359l228 -278l-140 -105l-150 262l-151 -259zM587 1133v78l250 105l53 -167l-262 -63z" />
<glyph unicode="+" horiz-adv-x="1158" d="M90 531v232h370v362h237v-362h372v-232h-372v-359h-235v359h-372z" />
<glyph unicode="," horiz-adv-x="521" d="M107 99l2 116q2 62 27.5 85.5t87.5 23.5h75q62 0 85.5 -23.5t23.5 -85.5v-137q0 -216 -109 -394l-131 41q30 127 29 275q-86 0 -90 99z" />
<glyph unicode="-" horiz-adv-x="889" d="M125 443v209h640v-209h-640z" />
<glyph unicode="." horiz-adv-x="528" d="M109 111v104q0 62 25.5 85.5t87.5 23.5h86q62 0 86.5 -23.5t24.5 -85.5v-104q0 -62 -24.5 -86.5t-86.5 -24.5h-86q-62 0 -87.5 24.5t-25.5 86.5z" />
<glyph unicode="/" horiz-adv-x="1182" d="M43 -154l845 1638h251l-844 -1638h-252z" />
<glyph unicode="0" horiz-adv-x="1352" d="M105 742q0 426 127 598t443 172q318 0 445 -172t127 -598t-127 -598t-445 -172q-316 0 -443 172t-127 598zM428 742q0 -301 50.5 -405.5t194.5 -104.5q148 0 200 104.5t52 405.5t-52 405.5t-200 104.5q-144 0 -194.5 -104.5t-50.5 -405.5z" />
<glyph unicode="1" horiz-adv-x="921" d="M24 1336l372 148h326v-1484h-326v1045q0 94 12 161l-346 -90z" />
<glyph unicode="2" horiz-adv-x="1242" d="M97 0v183q0 84 47 133l363 392q267 277 265 423q-2 62 -47.5 80.5t-154.5 18.5q-228 0 -447 -19l-14 247q250 52 499.5 52t373.5 -73.5t124 -270.5q0 -134 -48.5 -236.5t-193.5 -254.5l-380 -396q82 15 220 16h445v-295h-1052z" />
<glyph unicode="3" horiz-adv-x="1216" d="M88 10l13 246q240 -14 408 -16q158 0 215.5 44.5t57.5 171.5q0 109 -47 158t-181 46h-277v224h277q130 0 167.5 48.5t35.5 149.5q0 104 -45 133.5t-185 29.5q-185 0 -396 -8l-14 236q238 39 466 39q264 0 374 -75.5t110 -268.5q0 -168 -49.5 -260.5t-176.5 -113.5v-9 q144 -24 203.5 -113t61.5 -259q4 -235 -112 -338t-397 -103q-219 0 -509 38z" />
<glyph unicode="4" horiz-adv-x="1367" d="M69 568l385 916h309l-352 -854q-15 -37 -2.5 -54t45.5 -17h359v400l53 237h250v-637h185v-202l-181 -30h-4v-327h-303v327h-587q-97 0 -145 75.5t-12 165.5z" />
<glyph unicode="5" horiz-adv-x="1184" d="M82 21l29 254q239 -26 384 -25q161 0 215.5 47t59.5 163q6 133 -63 172t-284 58l-180 22q-48 4 -76.5 38.5t-26.5 82.5l36 651h873l-11 -254h-608l-17 -269l213 -25q256 -29 362 -149t106 -333q0 -480 -518 -480q-215 0 -494 47z" />
<glyph unicode="6" horiz-adv-x="1264" d="M109 727q0 202 26.5 342t72.5 226t126.5 134t170.5 64.5t224 16.5q211 0 350 -39l-16 -215q-112 4 -334 4q-168 0 -229 -73t-72 -317q119 108 327 109q240 0 331.5 -107t91.5 -365q0 -137 -21.5 -229.5t-76 -164.5t-159 -105.5t-263.5 -33.5q-223 0 -338 65.5t-163 223.5 t-48 464zM426 663q2 -280 41 -358.5t193 -78.5q136 0 172 59t36 216q0 139 -41.5 189t-166.5 50q-116 0 -234 -77z" />
<glyph unicode="7" horiz-adv-x="1130" d="M58 1484h890q82 0 120 -50.5t11 -124.5l-449 -1309h-322l376 1075q26 80 63 140h-676z" />
<glyph unicode="8" horiz-adv-x="1330" d="M114 370q-1 371 256 395v9q-112 12 -166 106t-54 234q0 217 106.5 306.5t410 89.5t409.5 -89.5t106 -306.5q0 -140 -54.5 -233t-163.5 -107v-9q142 -12 197.5 -115.5t55.5 -279.5q0 -218 -114 -307t-436 -91q-321 -2 -437 89t-116 309zM421 437q0 -125 50 -168t198 -43 q144 0 191 43t47 168q0 133 -46 176t-190 43q-150 0 -200 -44t-50 -175zM445 1075q0 -114 45.5 -152.5t180.5 -38.5q133 0 174 37.5t41 153.5q0 121 -42 160.5t-175 39.5q-136 0 -180 -39.5t-44 -160.5z" />
<glyph unicode="9" horiz-adv-x="1264" d="M90 976q-2 284 114 409t409 125q140 0 231.5 -22.5t153.5 -71t94.5 -141.5t45.5 -212t13 -306q0 -250 -31.5 -402t-111 -237t-188 -114.5t-287.5 -29.5q-223 0 -381 39l20 217q121 -4 359 -4q168 0 231 80.5t73 310.5q-121 -111 -330 -112q-415 0 -415 471zM398 983 q-2 -131 42 -186t162 -55q111 0 235 81q0 277 -38 357t-188 80q-133 0 -174 -62.5t-39 -214.5z" />
<glyph unicode=":" horiz-adv-x="556" d="M111 111v104q0 62 25.5 87t87.5 25h86q62 0 86.5 -25t24.5 -87v-104q0 -62 -24.5 -86.5t-86.5 -24.5h-86q-62 0 -87.5 24.5t-25.5 86.5zM111 755v103q0 62 25.5 87t87.5 25h86q62 0 86.5 -24.5t24.5 -87.5v-103q0 -62 -24.5 -86t-86.5 -24h-86q-62 0 -87.5 23.5 t-25.5 86.5z" />
<glyph unicode=";" horiz-adv-x="556" d="M125 99l4 116q2 62 27 85.5t84 23.5h76q62 0 86 -23.5t26 -85.5v-137q-2 -218 -112 -394l-131 41q28 109 32 275q-88 0 -92 99zM127 755v103q0 62 24.5 87t86.5 25h86q62 0 87.5 -24.5t25.5 -87.5v-103q0 -62 -25 -86t-88 -24h-86q-62 0 -86.5 23.5t-24.5 86.5z" />
<glyph unicode="&#x3c;" horiz-adv-x="1113" d="M86 525v245l903 355v-247l-634 -231l634 -230v-247z" />
<glyph unicode="=" horiz-adv-x="1244" d="M129 297v226h987v-226h-987zM129 755v226h987v-226h-987z" />
<glyph unicode="&#x3e;" horiz-adv-x="1110" d="M123 170v247l634 230l-634 231v247l903 -355v-245z" />
<glyph unicode="?" horiz-adv-x="1108" d="M66 1479q24 5 87.5 17t89.5 15t81.5 9.5t117 8.5t143.5 2q232 0 346 -81.5t114 -251.5q0 -86 -37.5 -160t-91.5 -130t-109.5 -114.5t-98.5 -141t-50 -181.5h-258q-4 130 41 239t102 171.5t109 131.5t56 122q6 71 -41 104.5t-158 33.5q-189 0 -431 -11zM378 111v104 q0 62 25 85.5t87 23.5h76q62 0 86.5 -23.5t24.5 -85.5v-104q0 -62 -24.5 -86.5t-86.5 -24.5h-76q-62 0 -87 24.5t-25 86.5z" />
<glyph unicode="@" horiz-adv-x="1625" d="M123 576q0 171 6 272.5t34 190t69 131.5t123 74t182.5 40t264.5 9h327q187 0 281 -83t94 -274v-646h-236l-27 149q-60 -69 -160 -120.5t-217 -51.5q-133 0 -217.5 70.5t-84.5 200.5v102q0 112 71 175t202 63h374v53q0 74 -31 99.5t-113 25.5h-263q-101 0 -149.5 -2.5 t-101 -19.5t-72 -42.5t-39 -84t-22.5 -132.5t-3 -199q0 -129 3 -204t28 -135.5t44 -85t88 -41t123 -17.5t183 -1h11h607v-213q-372 -28 -605 -27q-185 0 -300 7.5t-208.5 38.5t-141 75t-78.5 133t-38.5 193.5t-7.5 276.5zM847 587q0 -99 103 -99q150 0 259 95v135l-261 -8 q-56 -2 -78.5 -22.5t-22.5 -65.5v-35z" />
<glyph unicode="A" horiz-adv-x="1397" d="M2 0l428 1398q9 38 41 62t73 24h310q92 0 114 -86l427 -1398h-332l-109 390h-509l-107 -390h-336zM513 643h371l-125 453q-26 107 -30 141h-58q-4 -21 -15 -69t-18 -72z" />
<glyph unicode="B" horiz-adv-x="1369" d="M150 0v1484q191 16 558 18q297 0 411 -81t114 -307q0 -162 -61.5 -245t-199.5 -95v-9q166 -14 237 -112.5t71 -282.5q0 -224 -114.5 -305.5t-389.5 -81.5q-413 0 -626 17zM471 230h249q136 0 183 40t47 163q0 133 -49 179t-189 48h-241v-430zM471 878h239q121 0 164.5 38 t43.5 153q0 111 -47.5 148t-178.5 37l-221 2v-378z" />
<glyph unicode="C" horiz-adv-x="1260" d="M101 742q0 424 139.5 596t483.5 172q250 0 446 -49l-29 -246q-174 10 -417 10q-161 0 -220 -101.5t-59 -381.5t59.5 -382t219.5 -102q300 0 448 19l28 -242q-193 -60 -476 -61q-344 0 -483.5 172t-139.5 596z" />
<glyph unicode="D" horiz-adv-x="1461" d="M150 0v1484q306 19 577 20q355 0 493.5 -164t138.5 -598t-138.5 -597.5t-493.5 -163.5q-271 0 -577 19zM478 240q36 0 118.5 -1t130.5 -1q165 0 226.5 105.5t61.5 398t-61.5 399t-226.5 106.5l-249 -2v-1005z" />
<glyph unicode="E" horiz-adv-x="1237" d="M138 293v899q2 137 90 217.5t236 80.5q486 0 689 -21l-16 -244h-569q-54 0 -78 -25.5t-24 -83.5v-226h592v-236h-592v-286q0 -60 23.5 -86t78.5 -26h569l16 -241q-203 -21 -689 -21q-148 0 -236 80t-90 219z" />
<glyph unicode="F" horiz-adv-x="1190" d="M146 0v1182q0 142 89 225t239 83q473 0 665 -23l-17 -242h-531q-62 0 -88.5 -25.5t-26.5 -83.5v-254h567v-238h-567v-624h-330z" />
<glyph unicode="G" horiz-adv-x="1386" d="M101 747q0 434 147.5 599.5t516.5 165.5q269 0 456 -51l-25 -242q-243 11 -420 11q-99 0 -155.5 -16t-99.5 -70t-58.5 -149.5t-15.5 -259.5q0 -277 51.5 -380t191.5 -103q129 0 267 75v529h316v-856h-241l-30 148q-172 -176 -428 -176q-250 0 -361.5 183t-111.5 592z" />
<glyph unicode="H" horiz-adv-x="1479" d="M150 0v1484h328v-568h524v568h327v-1484h-327v663h-524v-663h-328z" />
<glyph unicode="I" horiz-adv-x="627" d="M150 0v1484h328v-1484h-328z" />
<glyph unicode="J" horiz-adv-x="792" d="M43 17l37 219h101q141 0 141 115v1133h327v-1172q0 -162 -87.5 -250t-247.5 -88q-179 0 -271 43z" />
<glyph unicode="K" horiz-adv-x="1356" d="M150 0v1484h328v-419q0 -95 -16 -177h127l377 596h354l-382 -592q-37 -64 -107 -118v-9q77 -53 123 -131l392 -634h-365l-392 654h-127q15 -86 16 -143v-511h-328z" />
<glyph unicode="L" horiz-adv-x="1143" d="M146 310v1174h328v-1108q0 -58 26.5 -83.5t88.5 -25.5h510l15 -250q-208 -23 -595 -23h-33q-172 0 -256 86t-84 230z" />
<glyph unicode="M" horiz-adv-x="1958" d="M123 0l53 1361q7 123 123 123h316q105 0 129 -105l181 -741q17 -71 39 -208h27q2 11 16.5 88t22.5 120l179 741q26 105 133 105h316q119 0 123 -123l58 -1361h-310l-50 1227h-36l-224 -917q-21 -105 -133 -105h-216q-111 0 -133 105l-226 917h-35l-43 -1227h-310z" />
<glyph unicode="N" horiz-adv-x="1551" d="M150 0v1365q0 119 119 119h199q50 0 78 -23t54 -74l376 -767q54 -108 108 -240h22q-13 168 -14 250v854h310v-1365q0 -119 -116 -119h-204q-50 0 -78 22.5t-54 74.5l-388 791q-74 158 -91 230h-24q15 -107 15 -236v-882h-312z" />
<glyph unicode="O" horiz-adv-x="1470" d="M101 741.5q0 440.5 138.5 605.5t495.5 165t497 -165t140 -605.5t-140 -605t-497 -164.5t-495.5 164.5t-138.5 605zM445 741.5q0 -294.5 61.5 -400t229 -105.5t229 105.5t61.5 400t-61.5 400t-229 105.5t-229 -105.5t-61.5 -400z" />
<glyph unicode="P" horiz-adv-x="1319" d="M150 0v1484q200 19 564 20q312 0 427 -101.5t115 -383.5t-109 -384t-390 -102q-142 0 -279 17v-550h-328zM478 785h230q127 3 173 50t46 184.5t-46 185t-173 47.5l-230 -2v-465z" />
<glyph unicode="Q" horiz-adv-x="1474" d="M101 741.5q0 440.5 139.5 605.5t496.5 165t496 -165t139 -605.5t-139 -605t-496 -164.5t-496.5 164.5t-139.5 605zM447 741.5q0 -294.5 61.5 -400t229 -105.5t229 105.5t61.5 400t-61.5 400t-229 105.5t-229 -105.5t-61.5 -400zM552 -250l78 174q258 -90 645 -146 l-93 -291q-322 78 -630 263z" />
<glyph unicode="R" horiz-adv-x="1381" d="M150 0v1484q200 19 566 20q299 0 423.5 -95t124.5 -344q0 -164 -65.5 -256.5t-217.5 -111.5v-11q170 -39 211 -224l128 -462h-346l-112 454q-21 71 -56.5 98t-101.5 27l-230 2v-581h-324zM474 833h236q129 0 176 44t47 166.5t-46 165.5t-177 43l-236 -2v-417z" />
<glyph unicode="S" horiz-adv-x="1250" d="M92 1101q0 245 119.5 328t420.5 83q284 0 488 -59l-21 -223q-187 6 -465 7q-129 0 -172 -22.5t-43 -113.5q0 -73 32.5 -105t122.5 -63l282 -96q172 -60 243 -164.5t71 -272.5q0 -250 -120.5 -339t-429.5 -89q-252 0 -511 56l20 237q458 -11 491 -11q131 0 175 28t44 116 q0 76 -30 107t-110 57l-299 105q-166 60 -237 163t-71 271z" />
<glyph unicode="T" horiz-adv-x="1291" d="M39 1217v267h1215v-267h-443v-1217h-329v1217h-443z" />
<glyph unicode="U" horiz-adv-x="1463" d="M140 591v893h326v-893q0 -205 57.5 -280t209.5 -75q150 0 207.5 75.5t57.5 279.5v893h329v-893q0 -340 -130 -479.5t-448 -139.5q-335 0 -472 140t-137 479z" />
<glyph unicode="V" horiz-adv-x="1367" d="M15 1484h338l269 -1071q21 -86 36 -165h54q6 41 37 165l266 1071h337l-402 -1394q-10 -41 -41 -65.5t-74 -24.5h-299q-44 0 -75 24.5t-42 65.5z" />
<glyph unicode="W" horiz-adv-x="2091" d="M56 1484h336l144 -1030q12 -97 18 -216h43q7 60 33 216l160 929q6 45 37 73t78 28h285q45 0 76 -28t37 -73l160 -931q26 -160 29 -214h45q9 123 20 211l146 1035h333l-234 -1394q-9 -41 -41 -65.5t-77 -24.5h-314q-45 0 -77.5 25.5t-38.5 66.5l-162 971q-17 94 -25 187 h-41q0 -7 -10 -80.5t-16 -109.5l-159 -968q-6 -41 -39.5 -66.5t-79.5 -25.5h-314q-43 0 -76 24.5t-42 65.5z" />
<glyph unicode="X" horiz-adv-x="1377" d="M21 0l387 761l-357 723h336l286 -614h33l285 614h336l-357 -723l387 -761h-340l-316 660h-26l-316 -660h-338z" />
<glyph unicode="Y" horiz-adv-x="1307" d="M0 1484h342l247 -544q21 -48 56 -187h22q26 116 53 187l248 544h337l-486 -994v-490h-329v490z" />
<glyph unicode="Z" horiz-adv-x="1252" d="M86 0v252l706 981h-689v251h1050v-251l-706 -981h723v-252h-1084z" />
<glyph unicode="[" horiz-adv-x="743" d="M164 -189v1675q0 73 46 119.5t119 46.5h344v-199h-172q-41 0 -41 -40v-1530q0 -41 41 -41h172v-197h-344q-166 0 -165 166z" />
<glyph unicode="\" horiz-adv-x="1184" d="M43 1484h254l844 -1638h-253z" />
<glyph unicode="]" horiz-adv-x="743" d="M71 -158h172q41 0 41 41v1530q0 41 -41 40h-172v199h342q73 0 120.5 -46.5t47.5 -119.5v-1675q0 -73 -47.5 -119.5t-120.5 -46.5h-342v197z" />
<glyph unicode="^" horiz-adv-x="993" d="M64 864l319 484h230l316 -484l-125 -68l-297 355h-17l-303 -355z" />
<glyph unicode="_" horiz-adv-x="1197" d="M121 0h956v-209h-956v209z" />
<glyph unicode="`" horiz-adv-x="758" d="M60 1363l147 219l431 -318l-92 -137z" />
<glyph unicode="a" horiz-adv-x="1219" d="M78 279v108q0 127 86 198t238 71h378v48q-2 81 -37 109t-136 28q-177 -1 -447 -18l-31 215q286 52 552 52q216 0 317 -87t101 -302v-701h-252l-32 162q-160 -187 -392 -188q-152 0 -248.5 80.5t-96.5 224.5zM392 322q0 -109 125 -109q129 0 263 103v148h-285 q-103 -2 -103 -101v-41z" />
<glyph unicode="b" horiz-adv-x="1272" d="M127 56v1450h320v-338q0 -148 -28 -250q168 172 377 172q207 0 297.5 -127.5t90.5 -422.5q0 -273 -111.5 -419.5t-405.5 -146.5q-129 0 -289.5 21.5t-250.5 60.5zM445 230q90 -20 178 -20q18 0 37 1q110 4 154 73t44 254q0 176 -36.5 237.5t-152.5 61.5q-88 0 -224 -90 v-517z" />
<glyph unicode="c" horiz-adv-x="1089" d="M86 531q0 308 120.5 433.5t415.5 125.5q240 0 391 -66l-34 -199q-232 5 -304 6q-146 0 -201 -62.5t-55 -237t55 -237t201 -62.5q187 1 325 20l28 -207q-164 -71 -411 -71q-293 0 -412 126t-119 431z" />
<glyph unicode="d" horiz-adv-x="1276" d="M88 540q0 305 99 427.5t308 122.5q204 0 344 -95q-11 119 -12 222v289h320v-1506h-252l-27 154q-152 -180 -404 -180q-197 0 -286.5 143t-89.5 423zM415 542q0 -183 38.5 -244.5t137.5 -61.5q66 0 113.5 18.5t122.5 67.5v491q-143 41 -225 41q-107 0 -147 -60.5 t-40 -251.5z" />
<glyph unicode="e" horiz-adv-x="1203" d="M86 529q0 312 123.5 436.5t416.5 124.5q264 0 382.5 -91.5t120.5 -278.5q0 -148 -76.5 -222.5t-246.5 -74.5h-383q15 -116 70 -155.5t182 -39.5q170 0 396 24l30 -198q-165 -80 -463 -80q-299 0 -425.5 129t-126.5 426zM417 615h301q58 0 78.5 28t20.5 81q0 76 -38.5 105 t-142.5 29q-123 0 -168 -48.5t-51 -194.5z" />
<glyph unicode="f" horiz-adv-x="868" d="M41 847v202l185 11v161q0 327 348 328q226 0 344 -22l-30 -211h-200q-80 0 -111 -30t-31 -108v-118h293v-213h-293v-847h-320v847h-185z" />
<glyph unicode="g" horiz-adv-x="1244" d="M51 -94q0 81 38 133.5t130 95.5q-61 60 -61 143q0 16 2 33q14 104 94 151q-157 74 -157 287q0 187 111.5 264t388.5 77q168 0 279 -30h341l-15 -139l-133 -18q25 -58 25 -145v-7q0 -185 -110.5 -262.5t-388.5 -77.5q-92 0 -182 10q-17 -22 -17 -46q0 -15 6 -31 q17 -43 74 -49l384 -45q164 -19 236 -94.5t72 -221.5q0 -203 -121.5 -274t-435.5 -71q-326 0 -443 68t-117 249zM402 -152.5q47 -21.5 204 -21.5t207.5 22.5t50.5 93.5q0 56 -32.5 71t-141.5 28l-267 28q-68 -54 -68 -121q0 -79 47 -100.5zM390 751q0 -78 43.5 -108 t161.5 -30q117 0 161 30t44 108q0 80 -43 107.5t-161 27.5t-162 -27.5t-44 -107.5z" />
<glyph unicode="h" horiz-adv-x="1287" d="M131 0v1506h321v-369q0 -109 -19 -221q221 174 433 174q144 0 220.5 -75t76.5 -219v-796h-316v697q0 72 -22.5 98t-80.5 26q-114 0 -295 -97v-724h-318z" />
<glyph unicode="i" horiz-adv-x="593" d="M133 1320v116q0 93 93 93h142q92 0 92 -93v-116q0 -93 -92 -93h-142q-93 0 -93 93zM140 0v1060h316v-1060h-316z" />
<glyph unicode="j" horiz-adv-x="597" d="M10 -284q132 149 132 333v1011h316v-1011q0 -148 -73 -276t-200 -196zM135 1329v116q0 92 93 92h140q92 0 92 -92v-116q0 -92 -92 -92h-140q-93 0 -93 92z" />
<glyph unicode="k" horiz-adv-x="1197" d="M131 0v1506h318v-622q0 -105 -14 -194h98l263 370h357l-275 -368q-35 -58 -100 -101v-4q54 -37 100 -113l312 -474h-357l-297 492h-101q14 -96 14 -159v-333h-318z" />
<glyph unicode="l" horiz-adv-x="702" d="M133 267v1239h316v-1160q0 -107 121 -108h86l36 -221q-82 -43 -253 -43q-142 0 -224 76.5t-82 216.5z" />
<glyph unicode="m" horiz-adv-x="1887" d="M131 0v1060h254l21 -155q203 185 405 185q215 0 273 -172q186 172 387 172q144 0 219 -75t75 -219v-796h-316v697q0 69 -23.5 96.5t-87.5 27.5q-52 0 -99 -19.5t-138 -74.5v-727h-305v697q0 69 -27 96.5t-88 27.5q-84 0 -234 -92v-729h-316z" />
<glyph unicode="n" horiz-adv-x="1287" d="M131 0v1060h259l23 -157q230 187 453 187q144 0 220.5 -75t76.5 -219v-796h-316v697q0 72 -22.5 98t-80.5 26q-100 0 -295 -97v-724h-318z" />
<glyph unicode="o" horiz-adv-x="1262" d="M86 529q0 308 123.5 434.5t422.5 126.5q297 0 420.5 -127.5t123.5 -433t-123.5 -431.5t-420.5 -126q-299 0 -422.5 126t-123.5 431zM419 529q0 -189 43 -253.5t170 -64.5q123 0 167 64.5t44 253.5q0 191 -43 257t-168 66q-127 0 -170 -65t-43 -258z" />
<glyph unicode="p" horiz-adv-x="1289" d="M131 -408v1468h259l23 -155q66 80 183.5 131.5t238.5 51.5q365 0 365 -567q0 -306 -98 -427.5t-306 -121.5q-215 0 -355 104q8 -76 8 -155q0 -36 -2 -73v-256h-316zM447 252q168 -43 241 -43q105 0 145 60t40 252q0 187 -36.5 252.5t-128.5 65.5q-106 -1 -261 -102v-485z " />
<glyph unicode="q" horiz-adv-x="1270" d="M86 525q0 283 112 424t413 141q127 0 285 -21.5t248 -62.5v-1414h-319v309q0 140 27 241q-187 -170 -385 -170t-289.5 135.5t-91.5 417.5zM413 517q0 -158 35.5 -219.5t140.5 -61.5q97 0 238 82v515q-99 22 -184 22q-16 0 -32 -1q-114 -5 -156 -73.5t-42 -263.5z" />
<glyph unicode="r" horiz-adv-x="913" d="M131 0v1060h247l28 -155q218 185 431 185h55l-32 -294h-86q-105 0 -325 -74v-722h-318z" />
<glyph unicode="s" horiz-adv-x="1132" d="M80 788q0 165 102 233.5t349 68.5q286 -4 491 -41l-22 -204q-271 4 -409 4q-75 0 -104 -1t-58 -7t-35.5 -20.5t-6.5 -42.5q0 -10 1.5 -18.5t5.5 -16.5t7 -12t11.5 -9.5t14.5 -7.5t19.5 -7.5t21.5 -7.5t28.5 -7.5t30.5 -7.5l271 -73q142 -41 202 -108.5t60 -201.5 q0 -189 -109.5 -257t-376.5 -68q-258 0 -475 37l20 206q77 -4 367 -4q166 0 216.5 14t50.5 66q0 11 -1 19t-5.5 16t-9 12t-14 9.5t-14.5 8.5t-20.5 8.5t-24 7.5t-30.5 8t-32 10l-264 70q-146 43 -202 117.5t-56 206.5z" />
<glyph unicode="t" horiz-adv-x="883" d="M41 847v202l187 11v297h316v-297h295v-213h-295v-501q0 -59 25.5 -83.5t90.5 -24.5h136l35 -221q-123 -43 -300 -43q-144 0 -223.5 80.5t-79.5 224.5v568h-187z" />
<glyph unicode="u" horiz-adv-x="1268" d="M125 267v793h318v-697v-10q-1 -61 23 -87q26 -28 90 -28q93 0 265 89v733h316v-1060h-251l-24 146q-219 -174 -439 -174q-299 0 -298 295z" />
<glyph unicode="v" horiz-adv-x="1210" d="M15 1060h338l191 -664q24 -88 45 -189h28l50 189l191 664h336l-349 -984q-26 -76 -103 -76h-276q-78 0 -103 76z" />
<glyph unicode="w" horiz-adv-x="1820" d="M35 1060h320l144 -688q21 -117 26 -175h27q4 31 14 89t15 86l107 594q14 94 110 94h224q43 0 74 -25.5t37 -70.5l106 -592q4 -31 14.5 -88.5t14.5 -86.5h27l25 175l147 688h320l-260 -976q-21 -84 -109 -84h-250q-43 0 -75.5 27t-38.5 70l-108 600q-2 19 -9.5 81.5 t-13.5 97.5h-26l-27 -179l-105 -600q-6 -43 -38 -70t-78 -27h-245q-88 0 -109 84z" />
<glyph unicode="x" horiz-adv-x="1212" d="M21 0l328 544l-304 516h325l225 -408h22l226 408h325l-304 -516l328 -544h-328l-251 445h-13l-251 -445h-328z" />
<glyph unicode="y" horiz-adv-x="1207" d="M15 1060h340l197 -686q19 -76 33 -159h28q7 27 21.5 81.5t21.5 77.5l196 686h340l-377 -1075q-31 -86 -74.5 -159.5t-112.5 -141t-171 -99.5q-71 -22 -153 -22q-36 0 -74 4l-25 188q129 35 202 89.5t114 147.5l4 8h-61q-80 0 -103 78z" />
<glyph unicode="z" horiz-adv-x="1128" d="M86 0v228l585 607h-574v225h935v-225l-583 -607h594v-228h-957z" />
<glyph unicode="{" horiz-adv-x="728" d="M74 602v206q45 15 57.5 20t31 21.5t20.5 40.5t2 71v391q0 166 114.5 248t352.5 52v-197q-97 0 -130.5 -26.5t-33.5 -105.5v-325q2 -140 -44 -205.5t-177 -86.5q131 -37 179.5 -101.5t50.5 -183.5v-451q0 -80 33.5 -105t129.5 -25v-195q-238 -30 -352.5 50.5t-114.5 248.5 v514q0 39 -4 60.5t-25.5 38.5t-32 21.5t-57.5 23.5z" />
<glyph unicode="|" horiz-adv-x="560" d="M168 -363v2042h224v-2042h-224z" />
<glyph unicode="}" horiz-adv-x="730" d="M71 -160q97 0 130 25.5t33 104.5v451q2 119 50.5 183.5t179.5 101.5q-129 21 -176.5 86.5t-44.5 205.5v325q0 80 -33.5 106t-129.5 26v197q238 30 352 -52t114 -248v-391q0 -47 2 -71t20.5 -40.5t31.5 -21.5t58 -20v-206q-84 -35 -99 -54q-21 -28 -21 -90v-514 q0 -168 -114 -248.5t-353 -50.5v195z" />
<glyph unicode="~" horiz-adv-x="1102" d="M133 466q-24 155 28 235.5t147 78.5q69 -4 238.5 -54.5t204.5 -54.5q49 -8 62.5 13.5t13.5 85.5h145q24 -153 -26.5 -234.5t-147.5 -77.5q-76 2 -243.5 53t-201.5 55q-50 8 -63 -14t-13 -86h-144z" />
<glyph unicode="&#xa2;" horiz-adv-x="1120" d="M84 749q0 295 112 421.5t378 134.5l19 179h240l-22 -189q122 -19 204 -54l-34 -194q-155 8 -306 9q-159 0 -218 -63.5t-59 -244t59.5 -244t217.5 -63.5q187 0 327 17l28 -196q-146 -61 -340 -69l-21 -193h-239l22 203q-198 30 -283 156.5t-85 389.5z" />
<glyph unicode="&#xa3;" horiz-adv-x="1257" d="M99 864h157l-18 244q-12 236 92.5 319t348.5 83q194 0 443 -22l-16 -245q-93 2 -386 2q-96 0 -132 -32.5t-29 -118.5l20 -230h385l-10 -165h-363l6 -90q9 -138 -28.5 -213.5t-125.5 -145.5q54 15 164 15h563v-265h-1063v265q185 84 166 344l-6 90h-166z" />
<glyph unicode="&#xa5;" horiz-adv-x="1414" d="M54 1484h338l248 -510q11 -18 59 -189h21q48 166 58 189l244 510h337l-359 -708h219v-202h-1014l-2 202h214zM203 507h1016v-199h-349v-308h-324v308h-341z" />
<glyph unicode="&#xa8;" horiz-adv-x="911" d="M140 1327v124q0 71 69 71h105q69 0 69 -71v-124q0 -71 -69 -71h-105q-69 0 -69 71zM529 1327v124q-1 71 71 71h104q71 0 70 -71v-124q0 -71 -70 -71h-104q-72 0 -71 71z" />
<glyph unicode="&#xa9;" horiz-adv-x="1740" d="M92 741.5q0 333.5 225 552t553 218.5q331 0 555.5 -218.5t224.5 -552t-224 -551.5t-556 -218q-328 0 -553 218t-225 551.5zM254 742q0 -264 180.5 -440.5t435.5 -176.5q259 0 438.5 176.5t179.5 440.5t-179.5 440.5t-438.5 176.5q-256 0 -436 -176.5t-180 -440.5z M462 747q0 244 95 344.5t325 100.5q170 0 292 -31l-19 -172q-185 4 -275 4q-103 0 -138.5 -50.5t-35.5 -195.5q0 -149 34 -198.5t140 -49.5q208 0 296 8l20 -172q-136 -39 -314 -38q-230 0 -325 101t-95 349z" />
<glyph unicode="&#xab;" horiz-adv-x="1113" d="M74 505v69l339 426l168 -108l-226 -352l228 -364l-168 -105zM519 505v69l341 426l168 -108l-228 -352l228 -364l-166 -105z" />
<glyph unicode="&#xae;" horiz-adv-x="1124" d="M84 1034q0 198 140 338t340 140q197 0 337 -139.5t140 -338.5t-140 -339.5t-337 -140.5q-200 0 -340 140.5t-140 339.5zM181 1034q0 -161 111.5 -274t271.5 -113q157 0 269.5 113t112.5 274q0 160 -113 273t-269 113q-160 0 -271.5 -113t-111.5 -273zM351 790v500 q71 7 228 7q120 0 170.5 -32t50.5 -116q0 -111 -116 -121v-4q69 -9 86 -80l51 -154h-144l-41 150q-16 41 -64 41h-88v-191h-133zM484 1069h90q54 2 72.5 16t18.5 50q0 39 -18.5 52t-72.5 13h-90v-131z" />
<glyph unicode="&#xb4;" horiz-adv-x="758" d="M103 1264l433 318l145 -219l-484 -236z" />
<glyph unicode="&#xb8;" horiz-adv-x="532" d="M51 -511l41 139q177 -4 185 124q2 29 -22.5 35t-112.5 6l30 125q179 19 246.5 -6.5t63.5 -133.5q-6 -157 -127 -235.5t-304 -53.5z" />
<glyph unicode="&#xbb;" horiz-adv-x="1113" d="M86 176l228 364l-226 352l166 108l341 -426v-69l-341 -434zM533 176l228 364l-228 352l168 108l342 -426v-69l-344 -434z" />
<glyph unicode="&#x2c6;" horiz-adv-x="962" d="M82 1273l288 282h230l284 -289l-88 -117l-304 201h-16l-306 -201z" />
<glyph unicode="&#x2da;" horiz-adv-x="663" d="M80 1383q0 105 74 177t179 72q103 0 178.5 -73t75.5 -176t-74 -174.5t-179.5 -71.5t-179.5 71.5t-74 174.5zM226 1383q0 -49 31 -79.5t76 -30.5t76.5 30.5t31.5 79.5t-31.5 80t-76.5 31q-47 0 -77 -31t-30 -80z" />
<glyph unicode="&#x2dc;" horiz-adv-x="946" d="M105 1225q-24 153 30 232.5t144 73.5q76 -6 184.5 -51.5t158.5 -51.5q51 -8 67.5 13.5t16.5 78.5h135q24 -146 -28 -227.5t-146 -75.5q-82 6 -195 53.5t-150 54.5q-51 6 -66.5 -16t-15.5 -84h-135z" />
<glyph unicode="&#x401;" horiz-adv-x="1240" d="M140 293v899q0 137 89 217.5t235 80.5q488 0 689 -21l-14 -244h-571q-54 0 -78 -25.5t-24 -83.5v-226h592v-236h-592v-286q0 -60 23.5 -86t78.5 -26h571l14 -241q-200 -21 -689 -21q-148 0 -236 80t-88 219zM359 1736v125q0 71 69 70h105q70 0 69 -70v-125q1 -70 -69 -70 h-105q-69 0 -69 70zM749 1736v125q0 71 70 70h104q71 0 70 -70v-125q1 -70 -70 -70h-104q-71 0 -70 70z" />
<glyph unicode="&#x402;" horiz-adv-x="1640" d="M39 1217v267h1211v-267h-442v-349q187 97 392 98q187 0 281.5 -97t94.5 -360q0 -295 -149 -416t-421 -114l-30 232q153 19 213.5 77t60.5 200q0 136 -36 173.5t-137 37.5q-135 0 -269 -61v-638h-328v1217h-441z" />
<glyph unicode="&#x403;" horiz-adv-x="1145" d="M148 0v1174q0 140 88 228t224 88q464 0 658 -23l-14 -242h-511q-62 0 -88.5 -26.5t-26.5 -90.5v-1108h-330zM460 1690l432 321l146 -222l-484 -234z" />
<glyph unicode="&#x404;" horiz-adv-x="1268" d="M101 742q0 424 142 596t492 172q256 0 451 -49l-27 -246q-232 10 -424 10q-148 0 -213.5 -74t-78.5 -263h602v-228h-606q8 -230 71.5 -316t224.5 -86q275 0 435 21l28 -244q-187 -60 -463 -61q-351 0 -492.5 172t-141.5 596z" />
<glyph unicode="&#x405;" horiz-adv-x="1250" d="M92 1101q0 245 119.5 328t420.5 83q284 0 488 -59l-21 -223q-187 6 -465 7q-129 0 -172 -22.5t-43 -113.5q0 -73 32.5 -105t122.5 -63l282 -96q172 -60 243 -164.5t71 -272.5q0 -250 -120.5 -339t-429.5 -89q-252 0 -511 56l20 237q458 -11 491 -11q131 0 175 28t44 116 q0 76 -30 107t-110 57l-299 105q-166 60 -237 163t-71 271z" />
<glyph unicode="&#x406;" horiz-adv-x="634" d="M154 0v1484h326v-1484h-326z" />
<glyph unicode="&#x407;" horiz-adv-x="634" d="M-2 1709v125q0 72 71 72h103q72 0 71 -72v-125q0 -71 -71 -70h-103q-71 0 -71 70zM154 0v1484h326v-1484h-326zM390 1709v125q-2 72 70 72h104q71 0 70 -72v-125q0 -71 -70 -70h-104q-72 0 -70 70z" />
<glyph unicode="&#x408;" horiz-adv-x="794" d="M43 17l37 219h101q141 0 141 115v1133h327v-1172q0 -162 -87.5 -250t-247.5 -88q-179 0 -271 43z" />
<glyph unicode="&#x409;" horiz-adv-x="2097" d="M35 217q71 19 119.5 58t85.5 129q48 107 69.5 261t41.5 429q2 47 4 72q19 318 349 318h584v-551h202q303 0 420.5 -102t117.5 -373t-110 -373t-371 -102q-372 0 -579 17h-2v1247h-184q-103 0 -115 -125q-31 -342 -54.5 -506t-70.5 -300q-66 -191 -179 -262t-305 -60z M1288 236h202q129 0 168 44t39 186q0 140 -39 189t-168 49h-202v-468z" />
<glyph unicode="&#x40a;" horiz-adv-x="2097" d="M154 0v1484h328v-566h482v566h324v-566h210q300 0 415 -100t115 -364q0 -269 -108 -370t-363 -101q-383 0 -587 17h-6v679h-482v-679h-328zM1288 236h210q123 0 161 43t38 178.5t-38 183t-161 47.5h-210v-452z" />
<glyph unicode="&#x40b;" horiz-adv-x="1689" d="M39 1217v267h1211v-267h-442v-335q218 92 415 92q193 0 285 -88t92 -273v-613h-330v544q0 88 -34 120.5t-130 32.5q-142 0 -298 -54v-643h-328v1217h-441z" />
<glyph unicode="&#x40c;" horiz-adv-x="1371" d="M154 0v1484h328v-419q0 -84 -18 -177h102q152 0 220 116t166 459q5 14 7 21h334q-121 -378 -154 -450q-75 -168 -189 -221q-53 -24 -129 -35v-8q41 -7 75.5 -14t65.5 -24.5t55 -30.5t48.5 -46t40.5 -52.5t39 -71t36 -81t37.5 -102.5t37 -113t43.5 -134q21 -66 32 -101 h-342q-121 394 -164 482q-66 135 -167 161q-38 10 -88 11h-106q17 -80 18 -143v-511h-328zM523 1690l434 321l144 -222l-484 -234z" />
<glyph unicode="&#x40d;" horiz-adv-x="1528" d="M154 0v1484h312v-871q0 -92 -17 -207h13q28 82 86 194l501 884h325v-1484h-314v886q0 99 19 200h-14q-33 -99 -84 -196l-501 -890h-326zM353 1789l144 222l432 -321l-92 -135z" />
<glyph unicode="&#x40e;" horiz-adv-x="1272" d="M15 1484h336l234 -785q6 -26 39 -26h53l256 811h335l-363 -1101q-64 -195 -146 -293t-228 -111.5t-357 31.5l37 233q209 -11 265.5 7.5t97.5 123.5l17 47h-80q-143 0 -191 149zM286 1916l151 21q0 -137 203 -137q201 0 201 137l150 -21q17 -135 -80.5 -229.5 t-270.5 -94.5q-174 0 -272.5 94.5t-81.5 229.5z" />
<glyph unicode="&#x40f;" horiz-adv-x="1492" d="M154 0v1484h328v-1248h529v1248h329v-1484h-460l-14 -324h-223l-15 324h-474z" />
<glyph unicode="&#x410;" horiz-adv-x="1397" d="M2 0l428 1398q9 38 41 62t73 24h310q92 0 114 -86l427 -1398h-332l-109 390h-509l-107 -390h-336zM513 643h371l-125 453q-26 107 -30 141h-58q-4 -21 -15 -69t-18 -72z" />
<glyph unicode="&#x411;" horiz-adv-x="1330" d="M152 0v1484q241 14 506 14q216 0 505 -14l-26 -251h-655v-351h226q307 0 427.5 -98t120.5 -354q0 -143 -32 -234t-107.5 -137t-168 -62t-242.5 -16q-310 0 -544 19h-10zM482 232h226q135 0 177 41t42 170q0 127 -42 171t-177 44h-226v-426z" />
<glyph unicode="&#x412;" horiz-adv-x="1373" d="M152 0v1484q193 16 560 18q295 0 409 -81t114 -307q0 -162 -60.5 -245t-198.5 -95v-9q166 -14 236 -112.5t70 -282.5q0 -224 -114 -305.5t-388 -81.5q-410 0 -628 17zM474 230h248q138 0 185 40t47 163q0 133 -49 179t-189 48h-242v-430zM474 878h240q119 0 163 38 t44 153q0 111 -47 148t-179 37l-221 2v-378z" />
<glyph unicode="&#x413;" horiz-adv-x="1145" d="M148 0v1174q0 140 88 228t224 88q464 0 658 -23l-14 -242h-511q-62 0 -88.5 -26.5t-26.5 -90.5v-1108h-330z" />
<glyph unicode="&#x414;" horiz-adv-x="1584" d="M37 236h156q152 380 194 938q11 140 103.5 225t242.5 85h609v-1248h193v-560h-232l-25 324h-983l-26 -324h-232v560zM501 236h514v1011h-192q-64 0 -93 -28.5t-33 -98.5q-26 -312 -69 -512t-127 -372z" />
<glyph unicode="&#x415;" horiz-adv-x="1240" d="M140 293v899q0 137 89 217.5t235 80.5q488 0 689 -21l-14 -244h-571q-54 0 -78 -25.5t-24 -83.5v-226h592v-236h-592v-286q0 -60 23.5 -86t78.5 -26h571l14 -241q-200 -21 -689 -21q-148 0 -236 80t-88 219z" />
<glyph unicode="&#x416;" horiz-adv-x="2017" d="M41 0q129 419 176 519q76 166 196 216q53 24 131 35v8q-54 6 -98 23.5t-76 37t-62.5 62.5t-51 76.5t-47 107.5t-43 124.5t-47.5 155.5q-25 78 -37 119h333q116 -366 159 -450q89 -137 191 -146h105q-16 93 -16 177v419h314v-419q0 -84 -17 -177h96q115 0 172.5 105.5 t158.5 416.5q15 47 24 74h333q-119 -378 -152 -456q-74 -166 -189 -217q-52 -25 -121 -33v-8q195 -27 274 -153.5t208 -550.5q15 -43 21 -66h-344q-136 413 -171 495q-62 129 -150 150q-28 8 -61 9h-99q17 -80 17 -143v-511h-314v511q0 62 16 143h-105q-118 0 -176 -102.5 t-170 -444.5q-21 -69 -34 -107h-344z" />
<glyph unicode="&#x417;" horiz-adv-x="1214" d="M62 47l24 226q258 -41 482 -41q127 0 170.5 40t43.5 161q0 129 -46 174t-177 49h-286v230h283q112 0 153.5 37.5t41.5 145.5q0 109 -44 146t-165 37q-167 0 -423 -29l-27 238q194 41 472 41q288 0 399.5 -81t111.5 -307q0 -162 -60.5 -244t-193.5 -96v-9 q162 -14 230.5 -112.5t68.5 -282.5q0 -222 -111.5 -304.5t-378.5 -82.5q-344 0 -568 64z" />
<glyph unicode="&#x418;" horiz-adv-x="1528" d="M154 0v1484h312v-871q0 -92 -17 -207h13q28 82 86 194l501 884h325v-1484h-314v886q0 99 19 200h-14q-33 -99 -84 -196l-501 -890h-326z" />
<glyph unicode="&#x419;" horiz-adv-x="1528" d="M154 0v1484h312v-871q0 -92 -17 -207h13q28 82 86 194l501 884h325v-1484h-314v886q0 99 19 200h-14q-33 -99 -84 -196l-501 -890h-326zM421 1925h211q-8 -177 144 -177q148 0 140 177h211q16 -138 -80.5 -235.5t-270.5 -97.5t-273 97.5t-82 235.5z" />
<glyph unicode="&#x41a;" horiz-adv-x="1371" d="M154 0v1484h328v-419q0 -84 -18 -177h102q152 0 220 116t166 459q5 14 7 21h334q-121 -378 -154 -450q-75 -168 -189 -221q-53 -24 -129 -35v-8q41 -7 75.5 -14t65.5 -24.5t55 -30.5t48.5 -46t40.5 -52.5t39 -71t36 -81t37.5 -102.5t37 -113t43.5 -134q21 -66 32 -101 h-342q-121 394 -164 482q-66 135 -167 161q-38 10 -88 11h-106q17 -80 18 -143v-511h-328z" />
<glyph unicode="&#x41b;" horiz-adv-x="1457" d="M8 248q84 14 134.5 48.5t79.5 107.5q43 115 66.5 277t49.5 480q24 323 348 323h619v-1484h-329v1247h-188q-128 0 -136 -125q-28 -332 -53 -506.5t-74 -299.5q-131 -365 -492 -322z" />
<glyph unicode="&#x41c;" horiz-adv-x="1964" d="M127 0l54 1361q4 123 122 123h317q102 0 129 -105l180 -741q9 -43 23 -120l16 -88h27q3 11 17 88t22 120l179 741q24 105 133 105h316q117 0 123 -123l56 -1361h-310l-47 1227h-39l-224 -917q-21 -105 -131 -105h-214q-110 0 -136 105l-227 917h-35l-43 -1227h-308z" />
<glyph unicode="&#x41d;" horiz-adv-x="1487" d="M154 0v1484h328v-568h522v568h330v-1484h-330v663h-522v-663h-328z" />
<glyph unicode="&#x41e;" horiz-adv-x="1470" d="M101 741.5q0 440.5 138.5 605.5t495.5 165t497 -165t140 -605.5t-140 -605t-497 -164.5t-495.5 164.5t-138.5 605zM445 741.5q0 -294.5 61.5 -400t229 -105.5t229 105.5t61.5 400t-61.5 400t-229 105.5t-229 -105.5t-61.5 -400z" />
<glyph unicode="&#x41f;" horiz-adv-x="1483" d="M154 0v1484h1175v-1484h-327v1247h-520v-1247h-328z" />
<glyph unicode="&#x420;" horiz-adv-x="1324" d="M152 0v1484q200 19 566 20q310 0 425 -101.5t115 -383.5t-108.5 -384t-388.5 -102q-141 0 -279 17v-550h-330zM482 785h228q129 3 174 50t45 184.5t-45 185t-174 47.5l-228 -2v-465z" />
<glyph unicode="&#x421;" horiz-adv-x="1260" d="M101 742q0 424 139.5 596t483.5 172q250 0 446 -49l-29 -246q-174 10 -417 10q-161 0 -220 -101.5t-59 -381.5t59.5 -382t219.5 -102q300 0 448 19l28 -242q-193 -60 -476 -61q-344 0 -483.5 172t-139.5 596z" />
<glyph unicode="&#x422;" horiz-adv-x="1291" d="M39 1217v267h1215v-267h-443v-1217h-329v1217h-443z" />
<glyph unicode="&#x423;" horiz-adv-x="1272" d="M15 1484h336l234 -785q6 -26 39 -26h53l256 811h335l-363 -1101q-64 -195 -146 -293t-228 -111.5t-357 31.5l37 233q209 -11 265.5 7.5t97.5 123.5l17 47h-80q-143 0 -191 149z" />
<glyph unicode="&#x424;" horiz-adv-x="1812" d="M69 759q0 335 150.5 476.5t522.5 159.5v194h329v-194q372 -18 522.5 -159.5t152.5 -476.5q-2 -324 -151.5 -461.5t-523.5 -159.5v-194h-329v194q-371 18 -522 157.5t-151 463.5zM400 759q0 -203 73 -280t284 -92v760q-211 -13 -284 -94t-73 -294zM1056 387 q211 15 284 93.5t73 278.5q0 211 -73 292t-284 96v-760z" />
<glyph unicode="&#x425;" horiz-adv-x="1377" d="M21 0l387 761l-357 723h336l286 -614h33l285 614h336l-357 -723l387 -761h-340l-316 660h-26l-316 -660h-338z" />
<glyph unicode="&#x426;" horiz-adv-x="1530" d="M154 0v1484h328v-1248h494v1248h329v-1248h177v-560h-232l-27 324h-1069z" />
<glyph unicode="&#x427;" horiz-adv-x="1412" d="M103 862v622h327v-551q-2 -84 34.5 -118.5t130.5 -34.5q166 0 336 67v637h327v-1484h-327v615q-230 -111 -453 -112q-191 0 -283 87t-92 272z" />
<glyph unicode="&#x428;" horiz-adv-x="2087" d="M154 0v1484h322v-1248h408v1248h320v-1248h409v1248h320v-1484h-1779z" />
<glyph unicode="&#x429;" horiz-adv-x="2147" d="M154 0v1484h322v-1248h404v1248h318v-1248h406v1248h319v-1248h174v-560h-230l-26 324h-1687z" />
<glyph unicode="&#x42a;" horiz-adv-x="1640" d="M37 1217v267h784v-551h211q306 0 422 -103t116 -376q0 -269 -110 -370t-372 -101q-386 0 -591 17h-5v1217h-455zM821 236h211q129 0 169 44t40 184t-40 190t-169 50h-211v-468z" />
<glyph unicode="&#x42b;" horiz-adv-x="1928" d="M154 0v1484h328v-551h215q306 0 423 -103t117 -376q0 -269 -110 -370t-374 -101q-385 0 -589 17h-10zM482 236h215q131 0 169.5 44t38.5 184t-40 190t-168 50h-215v-468zM1447 0v1484h327v-1484h-327z" />
<glyph unicode="&#x42c;" horiz-adv-x="1313" d="M154 0v1484h328v-551h219q306 0 423 -103t117 -376q0 -269 -109.5 -370t-374.5 -101q-389 0 -593 17h-10zM482 236h219q132 0 171 44t39 184t-39 190t-171 50h-219v-468z" />
<glyph unicode="&#x42d;" horiz-adv-x="1268" d="M71 35l28 244q159 -21 434 -21q162 0 225 86t73 316h-607v228h601q-12 189 -78 263t-214 74q-192 0 -424 -10l-27 246q195 49 451 49q351 0 493 -172t142 -596t-142 -596t-493 -172q-275 0 -462 61z" />
<glyph unicode="&#x42e;" horiz-adv-x="2087" d="M154 0v1484h330v-598h275q19 355 152.5 490.5t440.5 135.5q355 0 495 -165t140 -605.5t-140 -605t-495 -164.5q-318 0 -450 146.5t-145 530.5h-273v-649h-330zM1077 741.5q0 -294.5 57 -400t218 -105.5q166 0 226.5 105.5t62.5 400.5q-2 295 -62.5 400t-226.5 105 q-161 0 -218 -105.5t-57 -400z" />
<glyph unicode="&#x42f;" horiz-adv-x="1365" d="M62 0l121 454q43 184 223 219l-2 13q-152 19 -217.5 112.5t-65.5 266.5q0 240 123.5 339.5t409.5 99.5q361 0 559 -20v-1484h-327v570h-217q-125 0 -152 -127l-111 -443h-344zM449 1043q0 -123 46.5 -172.5t167.5 -49.5h223v429l-223 2q-123 0 -167 -43t-47 -166z" />
<glyph unicode="&#x430;" horiz-adv-x="1227" d="M82 279v108q0 127 86 198t238 71h379v48q-2 79 -37.5 108t-136.5 29q-174 -1 -449 -18l-29 215q286 52 551 52q215 0 317.5 -87t102.5 -302v-701h-252l-33 162q-160 -187 -393 -188q-152 0 -248 80.5t-96 224.5zM396 322q0 -109 123 -109q127 0 266 103v148h-286 q-103 -2 -103 -101v-41z" />
<glyph unicode="&#x431;" horiz-adv-x="1274" d="M114 652q0 174 15 293.5t56 228t119.5 179.5t200.5 110q80 26 270.5 49.5t297.5 79.5l58 -246q-86 -49 -172 -66.5t-183 -25t-163 -27.5q-176 -47 -230 -216q-19 -51 -37 -157h7q62 84 147 128t237 44q245 0 346 -117t101 -386q0 -281 -117 -415t-409 -134 q-109 0 -193.5 18t-141 47.5t-96.5 82t-62.5 102t-33 128t-14 140.5t-3.5 160zM443 523q0 -183 43 -247.5t161 -64.5t161.5 63.5t43.5 246.5q0 172 -39.5 228.5t-156.5 56.5q-131 0 -172 -61t-41 -222z" />
<glyph unicode="&#x432;" horiz-adv-x="1225" d="M133 -4v1064q183 13 507 13q263 0 364.5 -59.5t101.5 -221.5q0 -115 -55.5 -174t-177.5 -68v-8q145 -11 208 -79.5t63 -200.5q0 -159 -101 -219t-342 -60q-363 0 -568 13zM433 205h214q103 0 141.5 24.5t38.5 99.5q0 71 -40 98t-147 27h-207v-249zM433 638h207 q97 0 132.5 24t35.5 91q0 60 -38.5 81.5t-143.5 21.5l-193 2v-220z" />
<glyph unicode="&#x433;" horiz-adv-x="1032" d="M129 0v817q0 256 273 256q426 0 600 -28l-13 -222h-447q-52 0 -74.5 -22.5t-22.5 -73.5v-727h-316z" />
<glyph unicode="&#x434;" horiz-adv-x="1352" d="M45 228h133q95 242 132 574q26 258 303 258h520v-832h168v-531h-209l-23 303h-794l-21 -303h-209v531zM458 228h377v617h-138q-96 0 -108 -101q-37 -316 -131 -516z" />
<glyph unicode="&#x435;" horiz-adv-x="1210" d="M88 529q0 310 125 435.5t415 125.5q264 0 382.5 -91.5t120.5 -278.5q0 -148 -76 -222.5t-247 -74.5h-382q15 -116 70.5 -155.5t180.5 -39.5q170 0 396 24l31 -198q-166 -80 -464 -80q-299 0 -425.5 129t-126.5 426zM419 615h301q60 0 79.5 28t19.5 81q0 76 -38.5 105 t-142.5 29q-122 0 -167.5 -48.5t-51.5 -194.5z" />
<glyph unicode="&#x436;" horiz-adv-x="1767" d="M45 0q35 105 49.5 152.5t41 117.5t39 95t38 64t45 51t52 31.5t65.5 26t83 12.5v9q-160 19 -215.5 93.5t-143.5 340.5q-13 43 -21 67h312q88 -256 133 -329t137 -73h99q-12 60 -12 127v275h279v-275q0 -66 -13 -127h93q94 0 137 71t134 331h313q-98 -297 -133 -361 q-55 -96 -162 -125q-34 -9 -84 -15v-9q48 -6 81.5 -13.5t65.5 -24.5t52.5 -31.5t45 -51.5t39 -65.5t39 -93.5t40.5 -117t48 -153h-320q-105 301 -148 372t-136 71h-105q13 -47 13 -92v-351h-279v351q0 39 10 92h-110q-88 0 -129.5 -70t-152.5 -373h-320z" />
<glyph unicode="&#x437;" horiz-adv-x="1110" d="M62 17l22 219q232 -21 429 -21q115 0 151.5 20.5t36.5 91.5q0 64 -37.5 85t-146.5 23l-306 4v199l302 5q95 0 128.5 20.5t33.5 85.5q0 57 -39 74.5t-154 17.5q-197 -1 -365 -22l-23 219q158 48 372 48q295 0 407 -56t112 -232q0 -123 -51.5 -181t-174.5 -67v-8 q142 -11 205.5 -78.5t63.5 -198.5q0 -177 -111 -234t-379 -57q-276 0 -476 43z" />
<glyph unicode="&#x438;" d="M135 0v1060h282v-565q0 -60 -11 -157h7q28 72 79 144l405 578h271v-1062h-284v554q0 62 11 170h-9q-24 -77 -80 -156l-400 -566h-271z" />
<glyph unicode="&#x439;" d="M135 0v1060h282v-565q0 -60 -11 -157h7q28 72 79 144l405 578h271v-1062h-284v554q0 62 11 170h-9q-24 -77 -80 -156l-400 -566h-271zM297 1531h210q-8 -177 145 -177q148 0 140 177h210q16 -136 -81.5 -234.5t-268.5 -98.5q-174 0 -274.5 98.5t-80.5 234.5z" />
<glyph unicode="&#x43a;" horiz-adv-x="1212" d="M135 0v1060h317v-270q0 -64 -13 -130h80q123 0 169.5 70t122.5 330h322q-99 -299 -133 -361q-52 -94 -153 -123q-36 -11 -92 -20v-8q64 -8 105 -17.5t80 -40t59.5 -56.5t52.5 -100t52.5 -136.5t63.5 -197.5h-331q-95 301 -140 370t-159 69h-97q11 -54 11 -90v-349h-317z " />
<glyph unicode="&#x43b;" horiz-adv-x="1270" d="M26 226q88 14 125.5 34.5t55.5 79.5q41 121 68 452q26 268 295 268h565v-1060h-318v839h-138q-53 0 -78 -23.5t-33 -82.5q-45 -357 -78 -481q-64 -306 -432 -262z" />
<glyph unicode="&#x43c;" horiz-adv-x="1683" d="M119 0l31 950q0 109 112 110h284q99 0 119 -99l133 -469q10 -40 29 -157h25q2 10 11.5 68.5t18.5 88.5l131 469q19 99 120 99h289q107 0 111 -110l35 -950h-290l-31 827h-30l-172 -593q-24 -99 -118 -99h-172q-99 0 -123 99l-170 593h-29l-27 -827h-287z" />
<glyph unicode="&#x43d;" horiz-adv-x="1297" d="M135 0v1060h314v-389h403v389h311v-1060h-311v449h-403v-449h-314z" />
<glyph unicode="&#x43e;" horiz-adv-x="1266" d="M88 529q0 308 123.5 434.5t422.5 126.5t421.5 -126.5t122.5 -434.5q0 -305 -122.5 -431t-421.5 -126t-422.5 126t-123.5 431zM421 529q0 -189 43 -253.5t170 -64.5q125 0 169 64.5t44 253.5q0 191 -44 257t-169 66q-127 0 -170 -65t-43 -258z" />
<glyph unicode="&#x43f;" horiz-adv-x="1278" d="M135 0v1063h1009v-1063h-307v835h-392v-835h-310z" />
<glyph unicode="&#x440;" horiz-adv-x="1295" d="M135 -408v1468h259l23 -155q66 80 183.5 131.5t238.5 51.5q367 0 367 -567q0 -306 -98.5 -427.5t-307.5 -121.5q-215 0 -355 104q11 -110 7 -228v-256h-317zM452 252q168 -43 240 -43q107 0 147.5 60t40.5 252q0 187 -37 252.5t-129 65.5q-108 -1 -262 -102v-485z" />
<glyph unicode="&#x441;" horiz-adv-x="1094" d="M88 531q0 308 120.5 433.5t415.5 125.5q240 0 391 -66l-34 -199q-232 5 -304 6q-146 0 -201 -62.5t-55 -237t55 -237t201 -62.5q189 1 325 20l30 -207q-166 -71 -412 -71q-293 0 -412.5 126t-119.5 431z" />
<glyph unicode="&#x442;" horiz-adv-x="1102" d="M43 815v245h1020v-245h-353v-815h-314v815h-353z" />
<glyph unicode="&#x443;" horiz-adv-x="1214" d="M19 1060h338l197 -686q27 -99 35 -159h26q35 123 43 159l196 686h340l-377 -1075q-84 -262 -290 -368q-159 -91 -435 -43l27 211q195 -7 277 43q84 49 133 172h-61q-82 0 -105 78z" />
<glyph unicode="&#x444;" horiz-adv-x="1607" d="M86 529q0 277 132.5 406.5t441.5 150.5v420h286v-420q310 -21 442 -150.5t132 -406.5q0 -275 -132 -402t-442 -148v-387h-286v387q-309 21 -441.5 148t-132.5 402zM390 529q0 -168 60.5 -236.5t222.5 -83.5v647q-162 -15 -222.5 -86t-60.5 -241zM933 209q162 15 223 83.5 t61 236.5q0 170 -61 241t-223 86v-647z" />
<glyph unicode="&#x445;" horiz-adv-x="1216" d="M24 0l327 544l-302 516h325l226 -408h20l225 408h325l-302 -516l326 -544h-328l-251 445h-13l-251 -445h-327z" />
<glyph unicode="&#x446;" horiz-adv-x="1344" d="M135 0v1060h314v-832h368v832h314v-832h162v-531h-211l-24 303h-923z" />
<glyph unicode="&#x447;" horiz-adv-x="1219" d="M92 576v484h314v-385q0 -55 25 -78t86 -23q122 0 248 46v440h314v-1060h-314v396q-182 -62 -357 -63q-316 0 -316 243z" />
<glyph unicode="&#x448;" horiz-adv-x="1797" d="M135 0v1060h306v-832h318v832h279v-832h319v832h305v-1060h-1527z" />
<glyph unicode="&#x449;" horiz-adv-x="1874" d="M135 0v1060h306v-832h316v832h281v-832h316v832h308v-832h160v-531h-209l-26 303h-1452z" />
<glyph unicode="&#x44a;" horiz-adv-x="1405" d="M41 825v235h660v-368h157q277 0 380.5 -74t103.5 -278q0 -199 -100.5 -276t-332.5 -77q-326 0 -509 13h-4v825h-355zM701 211h157q96 0 130 28t34 114q0 82 -34 110.5t-130 28.5h-157v-281z" />
<glyph unicode="&#x44b;" horiz-adv-x="1674" d="M135 0v1060h306v-368h159q279 0 382.5 -74t103.5 -278q0 -199 -99 -276t-331 -77q-328 0 -512 13h-9zM441 211h159q98 0 131.5 27t33.5 115q0 84 -33 111.5t-132 27.5h-159v-281zM1221 0v1060h318v-1060h-318z" />
<glyph unicode="&#x44c;" horiz-adv-x="1153" d="M135 0v1060h306v-368h163q279 0 382.5 -74t103.5 -278q0 -199 -100 -276t-332 -77q-330 0 -514 13h-9zM441 211h163q98 0 132 27t34 115q0 84 -33 111.5t-133 27.5h-163v-281z" />
<glyph unicode="&#x44d;" horiz-adv-x="1147" d="M69 30l25 206q198 -10 392 -10q138 0 190.5 42t60.5 173h-532v195h530q-15 117 -68.5 158t-180.5 39q-127 -1 -381 -6l-25 203q162 54 406 54q318 0 446 -123.5t128 -435.5q0 -306 -129 -428.5t-445 -122.5q-252 0 -417 56z" />
<glyph unicode="&#x44e;" horiz-adv-x="1786" d="M135 0v1060h317v-404h208q19 250 131 342t370 92q302 0 419 -116t117 -445q0 -320 -118 -435t-418 -115q-264 0 -376 96.5t-127 357.5h-206v-433h-317zM950 533q0 -182 41 -243.5t166 -61.5t168 61.5t43 243.5q0 185 -43 246.5t-168 61.5t-166 -61.5t-41 -246.5z" />
<glyph unicode="&#x44f;" horiz-adv-x="1212" d="M54 0l90 329q30 106 202 123v10q-232 43 -232 287q0 187 94.5 260t359.5 73q357 0 511 -15v-1067h-309v361h-196q-107 0 -122 -77l-72 -284h-326zM423 718q0 -90 28.5 -119t122.5 -29h196v277h-196q-94 0 -122.5 -24.5t-28.5 -104.5z" />
<glyph unicode="&#x451;" horiz-adv-x="1210" d="M88 529q0 310 125 435.5t415 125.5q264 0 382.5 -91.5t120.5 -278.5q0 -148 -76 -222.5t-247 -74.5h-382q15 -116 70.5 -155.5t180.5 -39.5q170 0 396 24l31 -198q-166 -80 -464 -80q-299 0 -425.5 129t-126.5 426zM314 1318v125q0 71 69 71h105q70 0 68 -71v-125 q2 -71 -68 -71h-105q-69 0 -69 71zM419 615h301q60 0 79.5 28t19.5 81q0 76 -38.5 105t-142.5 29q-122 0 -167.5 -48.5t-51.5 -194.5zM704 1318v125q0 71 70 71h106q69 0 68 -71v-125q1 -71 -68 -71h-106q-72 0 -70 71z" />
<glyph unicode="&#x452;" d="M41 1032v154h144v320h316v-320h369v-154h-367v-96q0 -101 -15 -203q209 154 426 155q301 0 301 -295v-593h-320v497q0 66 -27 91t-100 25q-108 0 -267 -75v-538h-316v1032h-144z" />
<glyph unicode="&#x453;" horiz-adv-x="1032" d="M129 0v817q0 256 273 256q426 0 600 -28l-13 -222h-447q-52 0 -74.5 -22.5t-22.5 -73.5v-727h-316zM387 1299l432 318l147 -219l-486 -237z" />
<glyph unicode="&#x454;" horiz-adv-x="1147" d="M88 525q0 312 128 435.5t447 123.5q254 0 408 -54l-28 -203q-250 5 -380 6q-127 2 -181 -39t-67 -158h531v-195h-535q10 -131 64 -173t188 -42q198 0 391 10l25 -206q-165 -55 -416 -56q-317 0 -446 122.5t-129 428.5z" />
<glyph unicode="&#x455;" horiz-adv-x="1139" d="M84 788q0 165 101 233.5t348 68.5q284 -4 493 -41l-22 -204q-275 4 -411 4q-75 0 -104 -1t-58 -7t-35 -20.5t-6 -42.5q0 -10 1 -18.5t5 -16.5t7 -12t11.5 -9.5t14.5 -7.5t19.5 -7.5t21.5 -7.5t28.5 -7.5t30.5 -7.5l271 -73q142 -41 202.5 -108.5t60.5 -201.5 q0 -189 -110 -257t-377 -68q-258 0 -475 37l20 206q77 -4 367 -4q166 0 216.5 14t50.5 66q0 11 -1 19t-5.5 16t-9 12t-14 9.5t-14.5 8.5t-20.5 8.5t-24 7.5t-30.5 8t-32 10l-264 70q-144 43 -200 117.5t-56 206.5z" />
<glyph unicode="&#x456;" horiz-adv-x="603" d="M140 1320v116q0 93 92 93h140q92 0 92 -93v-116q0 -93 -92 -93h-140q-92 0 -92 93zM144 0v1060h316v-1060h-316z" />
<glyph unicode="&#x457;" horiz-adv-x="605" d="M-15 1318v125q-1 71 69 71h106q69 0 68 -71v-125q0 -72 -68 -71h-106q-70 0 -69 71zM144 0v1060h318v-1060h-318zM374 1318v125q0 71 71 71h105q70 0 70 -71v-125q0 -72 -70 -71h-105q-71 0 -71 71z" />
<glyph unicode="&#x458;" horiz-adv-x="605" d="M15 -284q129 146 129 333v1011h318v-1011q0 -148 -73 -276t-200 -196zM138 1329v116q0 92 92 92h142q92 0 92 -92v-116q0 -92 -92 -92h-142q-92 0 -92 92z" />
<glyph unicode="&#x459;" horiz-adv-x="1775" d="M45 209q43 8 68 15.5t56 34.5t48 70q41 98 86 486q27 244 280 245h499v-370h153q273 0 375 -75t102 -277q0 -199 -98 -275t-328 -76q-269 0 -494 13h-4v852h-107q-53 0 -75.5 -20.5t-29.5 -74.5q-43 -372 -92 -517q-49 -150 -159 -210t-259 -38zM1082 207h153 q99 0 132 27.5t33 114.5q0 84 -33 112.5t-132 28.5h-153v-283z" />
<glyph unicode="&#x45a;" horiz-adv-x="1773" d="M135 0v1060h291v-383h356v383h297v-385h164q269 0 367.5 -71t98.5 -266q0 -199 -95.5 -275t-320.5 -76q-325 0 -505 13h-6v471h-356v-471h-291zM1079 207h164q93 0 125 27.5t32 109.5q0 80 -31 108t-126 28h-164v-273z" />
<glyph unicode="&#x45b;" d="M41 1032v154h144v320h316v-320h369v-154h-367v-96q0 -101 -15 -203q209 154 426 155q297 0 301 -295v-544q0 -148 -71 -276t-194 -196l-178 139q123 142 123 333v448q0 64 -28 90t-99 26q-108 0 -267 -75v-538h-316v1032h-144z" />
<glyph unicode="&#x45c;" horiz-adv-x="1212" d="M135 0v1060h317v-270q0 -64 -13 -130h80q123 0 169.5 70t122.5 330h322q-99 -299 -133 -361q-52 -94 -153 -123q-36 -11 -92 -20v-8q64 -8 105 -17.5t80 -40t59.5 -56.5t52.5 -100t52.5 -136.5t63.5 -197.5h-331q-95 301 -140 370t-159 69h-97q11 -54 11 -90v-349h-317z M449 1299l433 318l146 -219l-484 -237z" />
<glyph unicode="&#x45d;" d="M135 0v1060h282v-565q0 -60 -11 -157h7q28 72 79 144l405 578h271v-1062h-284v554q0 62 11 170h-9q-24 -77 -80 -156l-400 -566h-271zM226 1398l146 219l432 -318l-94 -138z" />
<glyph unicode="&#x45e;" horiz-adv-x="1214" d="M19 1060h338l197 -686q27 -99 35 -159h26q35 123 43 159l196 686h340l-377 -1075q-84 -262 -290 -368q-159 -91 -435 -43l27 211q195 -7 277 43q84 49 133 172h-61q-82 0 -105 78zM250 1531h210q-8 -177 144 -177q149 0 140 177h210q17 -136 -80.5 -233.5t-269 -97.5 t-272 97.5t-82.5 233.5z" />
<glyph unicode="&#x45f;" horiz-adv-x="1291" d="M135 0v1060h317v-832h391v832h314v-1060h-385l-21 -351h-211l-23 351h-382z" />
<glyph unicode="&#x490;" horiz-adv-x="1156" d="M148 0v1174q0 140 88 228t224 88q286 0 424 -8l30 328h215v-357l-15 -228h-521q-62 0 -88.5 -26.5t-26.5 -90.5v-1108h-330z" />
<glyph unicode="&#x491;" horiz-adv-x="1034" d="M131 0v817q0 256 271 256q248 0 368 -6l28 305h206v-327l-15 -222h-445q-54 0 -76.5 -22.5t-22.5 -73.5v-727h-314z" />
<glyph unicode="&#x4b0;" horiz-adv-x="1324" d="M10 1484h343l244 -544q21 -48 57 -187h21q35 139 56 187l245 544h340l-424 -862h237v-175h-302v-447h-326v447h-304v175h240z" />
<glyph unicode="&#x4b1;" horiz-adv-x="1324" d="M13 1060h340l244 -533q11 -26 21 -57t20.5 -73t15.5 -59h19q37 144 56 189l243 533h342l-424 -853h239v-194h-302v-421h-328v421h-302v194h238z" />
<glyph unicode="&#x4b6;" horiz-adv-x="1492" d="M103 862v622h330v-551q-5 -86 32.5 -120.5t134.5 -34.5q161 0 329 67v639h329v-1265h187v-543h-230l-29 324h-257v609q-232 -105 -447 -106q-195 0 -287 87t-92 272z" />
<glyph unicode="&#x4b7;" horiz-adv-x="1289" d="M92 576v484h314v-385q0 -55 25 -78t82 -23q123 0 248 46v440h314v-832h164v-531h-211l-24 303h-243v396q-182 -62 -355 -63q-314 0 -314 243z" />
<glyph unicode="&#x4ba;" horiz-adv-x="1412" d="M154 0v1484h328v-608q230 105 449 105q196 0 288 -87.5t92 -271.5v-622h-328v550q2 86 -36 121t-134 35q-168 0 -331 -68v-638h-328z" />
<glyph unicode="&#x4c0;" horiz-adv-x="636" d="M154 0v1484h328v-1484h-328z" />
<glyph unicode="&#x2013;" horiz-adv-x="1205" d="M125 443v209h957v-209h-957z" />
<glyph unicode="&#x2014;" horiz-adv-x="1842" d="M125 443v209h1593v-209h-1593z" />
<glyph unicode="&#x2018;" horiz-adv-x="478" d="M101 1069v127q0 197 106 355l124 -35q-31 -118 -30 -252q86 0 86 -90l-2 -105q-4 -56 -27 -78.5t-81 -22.5h-70q-60 0 -83 22.5t-23 78.5z" />
<glyph unicode="&#x2019;" horiz-adv-x="472" d="M90 1327l2 105q2 58 26 80.5t82 22.5h71q60 0 82.5 -22.5t22.5 -80.5v-125q-2 -195 -105 -357l-125 37q26 103 30 252q-86 0 -86 88z" />
<glyph unicode="&#x201a;" horiz-adv-x="502" d="M107 94l2 111q4 60 27.5 82.5t80.5 22.5h73q58 0 81 -22.5t23 -82.5v-131q0 -205 -104 -371l-126 37q30 120 29 262q-82 0 -86 92z" />
<glyph unicode="&#x201c;" horiz-adv-x="864" d="M101 1069v127q0 197 106 355l124 -35q-31 -118 -30 -252q86 0 86 -90l-2 -105q-4 -56 -27 -78.5t-81 -22.5h-70q-60 0 -83 22.5t-23 78.5zM486 1069v127q2 197 105 355l127 -35q-30 -107 -30 -252q82 0 86 -90l-4 -105q-2 -56 -26 -78.5t-81 -22.5h-72q-58 0 -80.5 22.5 t-24.5 78.5z" />
<glyph unicode="&#x201d;" horiz-adv-x="857" d="M90 1327l2 105q2 58 26 80.5t82 22.5h71q60 0 82.5 -22.5t22.5 -80.5v-125q-2 -195 -105 -357l-125 37q26 103 30 252q-86 0 -86 88zM476 1327l2 105q2 58 26.5 80.5t80.5 22.5h73q58 0 80.5 -22.5t22.5 -80.5v-125q0 -195 -103 -357l-127 37q31 119 31 252q-82 0 -86 88 z" />
<glyph unicode="&#x201e;" horiz-adv-x="887" d="M107 78l2 105q2 57 26.5 79t81.5 22h71q60 0 83 -22t23 -79v-125q-2 -196 -106 -357l-124 37q26 102 29 252q-86 0 -86 88zM492 78l3 105q2 57 25.5 79t81.5 22h73q58 0 80.5 -22t22.5 -79v-125q0 -196 -103 -357l-127 37q31 118 31 252q-82 0 -87 88z" />
<glyph unicode="&#x2022;" horiz-adv-x="799" d="M160 566v31q0 123 50 171.5t182 48.5h29q125 0 173.5 -48.5t48.5 -171.5v-31q0 -131 -48.5 -182t-173.5 -51h-29q-134 0 -183 51t-49 182z" />
<glyph unicode="&#x2026;" horiz-adv-x="1919" d="M99 111v104q0 62 24 85.5t86 23.5h86q62 0 86.5 -23.5t24.5 -85.5v-104q0 -62 -24.5 -86.5t-86.5 -24.5h-86q-62 0 -86 24.5t-24 86.5zM794 111v104q0 62 24.5 85.5t86.5 23.5h86q62 0 87.5 -23.5t25.5 -85.5v-104q0 -62 -25 -86.5t-88 -24.5h-86q-62 0 -86.5 24.5 t-24.5 86.5zM1490 111v104q0 62 25 85.5t87 23.5h86q62 0 87 -23.5t25 -85.5v-104q0 -62 -25 -86.5t-87 -24.5h-86q-62 0 -87 24.5t-25 86.5z" />
<glyph unicode="&#x2039;" horiz-adv-x="667" d="M74 505v69l339 426l168 -108l-226 -352l228 -364l-168 -105z" />
<glyph unicode="&#x203a;" horiz-adv-x="669" d="M86 176l230 364l-228 352l166 108l343 -426v-69l-343 -434z" />
<glyph unicode="&#x20ac;" horiz-adv-x="1373" d="M84 507v203h936l-20 -203h-405q25 -127 87 -188t178 -67q189 -20 404 19l26 -236q-176 -60 -406 -61q-297 0 -446.5 130t-187.5 403h-166zM86 792v203h164q41 265 190 390t444 125q200 0 374 -49l-28 -240q-235 31 -370 12q-107 -11 -169.5 -67t-90.5 -171h479l-21 -203 h-972z" />
<glyph unicode="&#x2122;" horiz-adv-x="2107" d="M121 1325v171h731v-171h-257v-646h-219v646h-255zM931 679l30 739q4 79 77 78h207q66 0 84 -68l97 -370q4 -18 10.5 -58.5t10.5 -59.5h16q2 14 9 56t14 64l92 368q13 69 84 68h211q74 0 80 -78l27 -739h-201l-29 652h-21l-120 -465q-15 -66 -87 -66h-135q-69 0 -86 66 l-121 465h-21l-26 -652h-202z" />
<glyph unicode="&#x25fc;" horiz-adv-x="1063" d="M0 0v1065h1065v-1065h-1065z" />
</font>
</defs>
</svg>
